<svg xmlns="http://www.w3.org/2000/svg" viewBox="0 0 100 100">
  <!-- Background circle -->
  <circle cx="50" cy="50" r="48" fill="#1a1a1a" stroke="#ffffff" stroke-width="2"/>
  
  <!-- Simplified soccer ball pattern with pentagons and hexagons -->
  <!-- Central pentagon -->
  <polygon points="50,20 60,38 72,38 66,50 56,50" fill="#ffffff" opacity="0.95"/>
  
  <!-- Top pentagon -->
  <polygon points="50,12 62,28 70,28 68,40 56,40" fill="#ffffff" opacity="0.85"/>
  
  <!-- Bottom pentagon -->
  <polygon points="50,88 60,70 72,70 66,58 56,58" fill="#ffffff" opacity="0.85"/>
  
  <!-- Left pentagon -->
  <polygon points="12,50 28,60 28,72 40,66 40,56" fill="#ffffff" opacity="0.85"/>
  
  <!-- Right pentagon -->
  <polygon points="88,50 72,60 72,72 60,66 60,56" fill="#ffffff" opacity="0.85"/>
  
  <!-- Hexagons connecting pentagons -->
  <polygon points="35,35 50,28 65,35 68,50 55,58 42,50" fill="#ffffff" opacity="0.75"/>
  <polygon points="65,35 78,42 85,58 78,72 65,65 68,50" fill="#ffffff" opacity="0.75"/>
  <polygon points="65,65 50,72 35,65 32,50 45,42 58,50" fill="#ffffff" opacity="0.75"/>
  <polygon points="35,65 22,58 15,42 22,28 35,35 32,50" fill="#ffffff" opacity="0.75"/>
</svg>
